<?xml version="1.0" encoding="utf-8"?>
<!-- Generator: Adobe Illustrator 19.0.0, SVG Export Plug-In . SVG Version: 6.00 Build 0)  -->
<svg version="1.1" id="Layer_1" xmlns="http://www.w3.org/2000/svg" xmlns:xlink="http://www.w3.org/1999/xlink" x="0px" y="0px"
	 viewBox="0 0 289.4 52.4" style="enable-background:new 0 0 289.4 52.4;" xml:space="preserve">
<style type="text/css">
	.st0{fill-rule:evenodd;clip-rule:evenodd;fill:#5E2A29;}
	.st1{fill-rule:evenodd;clip-rule:evenodd;fill:#F3C017;}
	.st2{fill-rule:evenodd;clip-rule:evenodd;fill:#E36226;}
	.st3{fill-rule:evenodd;clip-rule:evenodd;fill:#902A30;}
	.st4{fill:#5E2A29;}
</style>
<g id="XMLID_69_">
	<path id="XMLID_146_" class="st0" d="M1.9,40.7c7.1,2.1,22.5-0.5,27.6,1.9c3.5,1.6,5.2,4.2,5.7,8c-2.8-7.7-19.5-2-26.8-4.5
		C6.6,45.5,4.1,43,1.9,40.7"/>
	<path id="XMLID_145_" class="st1" d="M31.9,1.5c-14.7,16.3-18.4,23.4-7,33.2C16.5,25.3,33,18,33.8,10.1C34,8.1,33.6,5.4,31.9,1.5"
		/>
	<path id="XMLID_144_" class="st2" d="M35.9,12.7c-12.2,13.5-15.3,19.4-5.8,27.5c-7-7.8,6.7-13.9,7.4-20.4
		C37.7,18.1,37.4,15.8,35.9,12.7"/>
	<path id="XMLID_143_" class="st3" d="M37.4,24c-8.5,9.4-10.7,13.6-4,19.2c-4.9-5.4,4.7-9.7,5.2-14.2C38.6,27.8,38.4,26.2,37.4,24"
		/>
	<path id="XMLID_142_" class="st0" d="M63.1,39c-6.3,1.1-20-0.3-24.5,1c-3.1,0.9-4.7,2.2-5.1,4.3c2.5-4.1,17.3-1.1,23.8-2.4
		C58.9,41.5,61.1,40.2,63.1,39"/>
	<g id="XMLID_125_">
		<rect id="XMLID_42_" x="69.2" y="38.7" class="st4" width="218.5" height="0.5"/>
	</g>
	<g id="XMLID_1302_">
		<path id="XMLID_1303_" class="st4" d="M70.7,20.9c-0.7-0.1-1.2-0.3-1.5-0.4v-2.6H70l0.6,1.6c0.2,0.3,0.6,0.5,1,0.6
			c0.4,0.1,0.8,0.2,1.3,0.2c0.6,0,1.1-0.2,1.4-0.5s0.6-0.8,0.6-1.3c0-0.5-0.2-0.9-0.6-1.3s-1-0.8-1.7-1.2c-0.8-0.4-1.4-0.8-1.8-1.1
			c-0.4-0.3-0.8-0.7-1.1-1.1s-0.4-0.9-0.4-1.4c0-0.6,0.2-1.2,0.5-1.6c0.4-0.4,0.8-0.8,1.4-1c0.6-0.2,1.1-0.3,1.7-0.3
			c0.6,0,1.2,0.1,1.8,0.2c0.6,0.1,1,0.2,1.3,0.4v2.2h-0.9l-0.6-1.5c-0.1-0.1-0.4-0.2-0.7-0.3c-0.3-0.1-0.6-0.1-0.9-0.1
			c-0.5,0-1,0.1-1.3,0.4C71.2,11,71,11.4,71,11.9c0,0.5,0.2,1,0.7,1.4c0.4,0.4,1.1,0.8,2,1.3c0.6,0.3,1.2,0.7,1.6,1
			c0.4,0.3,0.8,0.7,1.1,1.1c0.3,0.4,0.4,0.9,0.4,1.4c0,1-0.4,1.8-1.1,2.3c-0.8,0.5-1.7,0.8-2.9,0.8C72.1,21.1,71.4,21.1,70.7,20.9z"
			/>
		<path id="XMLID_1305_" class="st4" d="M79,20v-9.6l-1.2-0.3V9.4L80.5,9l0.4,0.2l0,3.4l-0.1,1.1c0.4-0.3,0.9-0.6,1.4-0.8
			c0.5-0.2,1-0.3,1.4-0.3c0.7,0,1.2,0.1,1.5,0.4c0.4,0.3,0.6,0.7,0.7,1.2s0.2,1.3,0.2,2.2V20l1,0.2V21H83v-0.8l1.2-0.2v-3
			c0-0.8,0-1.4-0.1-1.8s-0.2-0.8-0.4-1c-0.2-0.2-0.6-0.4-1.1-0.4c-0.7,0-1.3,0.2-1.7,0.5V20l0.9,0.2V21H78v-0.8L79,20z"/>
		<path id="XMLID_1307_" class="st4" d="M89.6,20v-5.5l-1-0.6v-0.6l2.2-0.7l0.4,0.1V14c0.2-0.3,0.5-0.6,1-0.9s1-0.4,1.4-0.4
			c0.4,0,0.6,0,0.7,0.1v1.8c-0.4-0.2-0.8-0.3-1.3-0.3c-0.6,0-1.1,0.1-1.5,0.4V20l1.9,0.2V21h-4.9v-0.8L89.6,20z"/>
		<path id="XMLID_1309_" class="st4" d="M98.4,12.7V20l1.1,0.2V21h-4.1v-0.8l1.2-0.2v-5.5l-1-0.7v-0.5l2.4-0.7L98.4,12.7z M98.3,9
			c0.2,0.2,0.3,0.5,0.3,0.8c0,0.4-0.1,0.7-0.4,0.9S97.6,11,97.2,11c-0.3,0-0.6-0.1-0.8-0.3c-0.2-0.2-0.3-0.5-0.3-0.8
			c0-0.4,0.1-0.7,0.4-0.9c0.3-0.2,0.6-0.4,0.9-0.4C97.8,8.7,98.1,8.8,98.3,9z"/>
		<path id="XMLID_1312_" class="st4" d="M101.9,20v-5.5l-1-0.6v-0.6l2.2-0.7l0.4,0.1v1.1c0.3-0.3,0.8-0.6,1.3-0.8
			c0.5-0.2,1-0.4,1.5-0.4c0.6,0,1,0,1.4,0.2c0.4,0.2,0.6,0.5,0.8,0.9c0.4-0.3,0.8-0.6,1.4-0.8c0.5-0.2,1.1-0.3,1.6-0.3
			c0.9,0,1.5,0.3,1.9,0.8c0.4,0.6,0.6,1.4,0.6,2.6V20l1.2,0.2V21h-3.9v-0.8l0.9-0.2v-3.7c0-0.6,0-1.1-0.1-1.5s-0.2-0.6-0.5-0.8
			s-0.6-0.3-1-0.3c-0.3,0-0.6,0-0.9,0.1c-0.3,0.1-0.6,0.2-0.9,0.4c0.1,0.4,0.1,0.9,0.1,1.5V20l1.1,0.2V21h-4v-0.8l1.1-0.2v-3.7
			c0-0.6,0-1-0.1-1.4s-0.2-0.6-0.5-0.8c-0.2-0.2-0.5-0.2-0.9-0.2c-0.3,0-0.6,0-0.9,0.2c-0.3,0.1-0.6,0.3-0.9,0.5V20l1,0.2V21h-3.9
			v-0.8L101.9,20z"/>
		<path id="XMLID_1314_" class="st4" d="M122.2,13.2c0.5,0.4,0.8,1.1,0.8,2.2v4.8h0.9v0.6c-0.2,0.1-0.4,0.2-0.7,0.3
			c-0.3,0.1-0.6,0.1-0.9,0.1c-0.4,0-0.6-0.1-0.8-0.2c-0.2-0.1-0.2-0.4-0.3-0.7c-0.6,0.6-1.3,0.9-2.3,0.9c-0.5,0-1-0.1-1.4-0.3
			c-0.4-0.2-0.7-0.5-0.9-0.8c-0.2-0.3-0.3-0.7-0.3-1.2c0-0.7,0.2-1.2,0.7-1.6c0.5-0.4,1.1-0.7,1.8-0.9c0.7-0.2,1.5-0.3,2.2-0.3v-0.5
			c0-0.7-0.2-1.2-0.5-1.4c-0.3-0.3-0.8-0.4-1.4-0.4c-0.3,0-0.7,0.1-1.1,0.2c-0.4,0.1-0.8,0.2-1.1,0.4l-0.3-0.8
			c0.3-0.3,0.8-0.5,1.5-0.7c0.6-0.2,1.2-0.2,1.7-0.2C120.9,12.6,121.6,12.8,122.2,13.2z M119.1,17.3c-0.6,0.3-0.9,0.7-0.9,1.3
			c0,1,0.5,1.5,1.5,1.5c0.2,0,0.5,0,0.7-0.2c0.3-0.1,0.5-0.2,0.6-0.4l0-2.6C120.4,16.9,119.7,17,119.1,17.3z"/>
		<path id="XMLID_1317_" class="st4" d="M132.2,9.2v11h1v0.6c-0.2,0.1-0.4,0.2-0.8,0.3s-0.7,0.1-1,0.1c-0.3,0-0.5-0.1-0.7-0.2
			c-0.1-0.1-0.2-0.3-0.3-0.6c-0.2,0.2-0.5,0.4-1,0.5c-0.4,0.2-0.9,0.2-1.4,0.2c-0.6,0-1.2-0.2-1.7-0.5s-0.9-0.8-1.2-1.4
			s-0.4-1.4-0.4-2.2s0.2-1.6,0.6-2.3c0.4-0.7,0.9-1.2,1.6-1.6c0.7-0.4,1.4-0.6,2.2-0.6c0.5,0,0.8,0.1,1.2,0.2v-2.2l-1.6-0.3V9.4
			l3-0.3L132.2,9.2z M127.8,13.8c-0.4,0.2-0.7,0.6-0.9,1.1s-0.3,1.1-0.3,1.8c0,0.7,0.1,1.3,0.3,1.8s0.5,0.9,0.8,1.2
			c0.3,0.3,0.7,0.4,1.1,0.4c0.3,0,0.6,0,0.9-0.1c0.3-0.1,0.5-0.2,0.7-0.3v-5.8c-0.4-0.3-0.8-0.5-1.4-0.5
			C128.5,13.4,128.2,13.5,127.8,13.8z"/>
		<path id="XMLID_1320_" class="st4" d="M145.4,10.2c0.7,0.5,1.1,1.2,1.1,2.3c0,0.8-0.2,1.5-0.6,2.1c-0.4,0.6-1,1-1.8,1.3
			c0,0,0.1,0.1,0.2,0.1c0.3,0.2,0.6,0.5,0.8,0.9s0.6,0.9,1,1.6c0.3,0.5,0.5,0.9,0.7,1.1c0.2,0.3,0.3,0.4,0.5,0.5l0.9,0.2V21h-2.5
			c-0.2,0-0.3-0.2-0.5-0.5c-0.2-0.3-0.4-0.8-0.7-1.4c-0.4-0.9-0.8-1.7-1.1-2.2c-0.3-0.5-0.7-0.8-1.1-0.8l-1.1,0v3.8l1.5,0.2V21h-4.7
			v-0.8l1.3-0.2v-9.2l-1.2-0.1v-1h1.8c0.2,0,0.4,0,0.6,0s0.4,0,0.5,0c0.6,0,1.1-0.1,1.5-0.1C143.7,9.5,144.7,9.7,145.4,10.2z
			 M141.9,10.4c-0.4,0-0.7,0.1-0.8,0.1v4.6c0.2,0,0.6,0,1.1,0c0.8,0,1.4-0.2,1.9-0.6c0.4-0.4,0.6-1,0.6-1.9c0-0.7-0.2-1.3-0.6-1.7
			c-0.4-0.4-1-0.6-1.9-0.6C142.1,10.4,142,10.4,141.9,10.4z"/>
		<path id="XMLID_1323_" class="st4" d="M154.6,13.2c0.5,0.4,0.8,1.1,0.8,2.2v4.8h0.9v0.6c-0.2,0.1-0.4,0.2-0.7,0.3
			c-0.3,0.1-0.6,0.1-0.9,0.1c-0.4,0-0.6-0.1-0.8-0.2c-0.2-0.1-0.2-0.4-0.3-0.7c-0.6,0.6-1.3,0.9-2.3,0.9c-0.5,0-1-0.1-1.4-0.3
			c-0.4-0.2-0.7-0.5-0.9-0.8c-0.2-0.3-0.3-0.7-0.3-1.2c0-0.7,0.2-1.2,0.7-1.6c0.5-0.4,1.1-0.7,1.8-0.9c0.7-0.2,1.5-0.3,2.2-0.3v-0.5
			c0-0.7-0.2-1.2-0.5-1.4c-0.3-0.3-0.8-0.4-1.4-0.4c-0.3,0-0.7,0.1-1.1,0.2c-0.4,0.1-0.8,0.2-1.1,0.4l-0.3-0.8
			c0.3-0.3,0.8-0.5,1.5-0.7c0.6-0.2,1.2-0.2,1.7-0.2C153.4,12.6,154.1,12.8,154.6,13.2z M151.6,17.3c-0.6,0.3-0.9,0.7-0.9,1.3
			c0,1,0.5,1.5,1.5,1.5c0.2,0,0.5,0,0.7-0.2c0.3-0.1,0.5-0.2,0.6-0.4l0-2.6C152.8,16.9,152.2,17,151.6,17.3z"/>
		<path id="XMLID_1326_" class="st4" d="M160.5,12.8v8.4c0,1.1-0.2,2-0.7,2.7s-1.1,1-2,1c-0.2,0-0.4,0-0.6-0.1
			c-0.2,0-0.4-0.1-0.4-0.1v-1.1c0.1,0,0.2,0,0.4,0.1c0.2,0,0.3,0,0.5,0c0.4,0,0.7-0.2,0.9-0.6c0.2-0.4,0.2-1.1,0.2-2v-6.4l-0.9-0.7
			v-0.5l2.3-0.7L160.5,12.8z M160.3,8.8c0.2,0.2,0.3,0.5,0.3,0.8c0,0.4-0.1,0.7-0.4,0.9c-0.3,0.2-0.6,0.4-1,0.4
			c-0.3,0-0.6-0.1-0.8-0.3c-0.2-0.2-0.3-0.5-0.3-0.8c0-0.3,0.1-0.6,0.4-0.9s0.6-0.4,0.9-0.4C159.8,8.5,160.1,8.6,160.3,8.8z"/>
		<path id="XMLID_1329_" class="st4" d="M167.8,12.6c0.4,0.1,0.8,0.2,1,0.3v2h-0.9l-0.5-1.1c-0.2-0.2-0.6-0.3-1.1-0.3
			c-0.6,0-1.2,0.3-1.6,0.8c-0.4,0.5-0.6,1.3-0.6,2.2c0,0.7,0.1,1.4,0.4,1.9c0.2,0.5,0.5,0.9,0.9,1.2c0.4,0.3,0.8,0.4,1.3,0.4
			c0.4,0,0.8,0,1.2-0.1s0.7-0.2,0.9-0.3l0.3,0.7c-0.3,0.3-0.8,0.5-1.3,0.7s-1.1,0.2-1.8,0.2c-0.8,0-1.4-0.2-2-0.5
			c-0.6-0.3-1-0.8-1.3-1.5s-0.4-1.3-0.4-2.1c0-0.9,0.2-1.7,0.6-2.3c0.4-0.7,0.9-1.2,1.5-1.6s1.4-0.6,2.2-0.6
			C166.9,12.5,167.3,12.5,167.8,12.6z"/>
		<path id="XMLID_1331_" class="st4" d="M171.1,20v-9.6l-1.2-0.3V9.4l2.6-0.3l0.4,0.2l0,3.4l-0.1,1.1c0.4-0.3,0.9-0.6,1.4-0.8
			c0.5-0.2,1-0.3,1.4-0.3c0.7,0,1.2,0.1,1.5,0.4c0.4,0.3,0.6,0.7,0.7,1.2s0.2,1.3,0.2,2.2V20l1,0.2V21h-4.1v-0.8l1.2-0.2v-3
			c0-0.8,0-1.4-0.1-1.8s-0.2-0.8-0.4-1c-0.2-0.2-0.6-0.4-1.1-0.4c-0.7,0-1.3,0.2-1.7,0.5V20l0.9,0.2V21H170v-0.8L171.1,20z"/>
		<path id="XMLID_1333_" class="st4" d="M186.3,13.2c0.5,0.4,0.8,1.1,0.8,2.2v4.8h0.9v0.6c-0.2,0.1-0.4,0.2-0.7,0.3
			c-0.3,0.1-0.6,0.1-0.9,0.1c-0.4,0-0.6-0.1-0.8-0.2c-0.2-0.1-0.2-0.4-0.3-0.7c-0.6,0.6-1.3,0.9-2.3,0.9c-0.5,0-1-0.1-1.4-0.3
			c-0.4-0.2-0.7-0.5-0.9-0.8c-0.2-0.3-0.3-0.7-0.3-1.2c0-0.7,0.2-1.2,0.7-1.6c0.5-0.4,1.1-0.7,1.8-0.9c0.7-0.2,1.5-0.3,2.2-0.3v-0.5
			c0-0.7-0.2-1.2-0.5-1.4c-0.3-0.3-0.8-0.4-1.4-0.4c-0.3,0-0.7,0.1-1.1,0.2c-0.4,0.1-0.8,0.2-1.1,0.4l-0.3-0.8
			c0.3-0.3,0.8-0.5,1.5-0.7c0.6-0.2,1.2-0.2,1.7-0.2C185,12.6,185.8,12.8,186.3,13.2z M183.2,17.3c-0.6,0.3-0.9,0.7-0.9,1.3
			c0,1,0.5,1.5,1.5,1.5c0.2,0,0.5,0,0.7-0.2c0.3-0.1,0.5-0.2,0.6-0.4l0-2.6C184.5,16.9,183.8,17,183.2,17.3z"/>
		<path id="XMLID_1336_" class="st4" d="M190.4,20v-5.5l-1-0.6v-0.6l2.2-0.7l0.4,0.1v1.1c0.4-0.3,0.9-0.6,1.4-0.9
			c0.6-0.2,1.1-0.3,1.6-0.3c0.9,0,1.5,0.3,1.8,0.8c0.3,0.5,0.5,1.4,0.5,2.6V20l1.1,0.2V21h-4v-0.8l1.1-0.2v-3.8c0-0.6,0-1.1-0.1-1.4
			c-0.1-0.3-0.2-0.6-0.5-0.7c-0.2-0.2-0.5-0.2-1-0.2c-0.3,0-0.6,0.1-0.9,0.2c-0.3,0.1-0.6,0.2-0.9,0.5V20l1,0.2V21h-3.8v-0.8
			L190.4,20z"/>
		<path id="XMLID_1338_" class="st4" d="M207.2,9.2v11h1v0.6c-0.2,0.1-0.4,0.2-0.8,0.3s-0.7,0.1-1,0.1c-0.3,0-0.5-0.1-0.7-0.2
			c-0.1-0.1-0.2-0.3-0.3-0.6c-0.2,0.2-0.5,0.4-1,0.5c-0.4,0.2-0.9,0.2-1.4,0.2c-0.6,0-1.2-0.2-1.7-0.5s-0.9-0.8-1.2-1.4
			s-0.4-1.4-0.4-2.2s0.2-1.6,0.6-2.3c0.4-0.7,0.9-1.2,1.6-1.6c0.7-0.4,1.4-0.6,2.2-0.6c0.5,0,0.8,0.1,1.2,0.2v-2.2l-1.6-0.3V9.4
			l3-0.3L207.2,9.2z M202.8,13.8c-0.4,0.2-0.7,0.6-0.9,1.1s-0.3,1.1-0.3,1.8c0,0.7,0.1,1.3,0.3,1.8s0.5,0.9,0.8,1.2
			c0.3,0.3,0.7,0.4,1.1,0.4c0.3,0,0.6,0,0.9-0.1c0.3-0.1,0.5-0.2,0.7-0.3v-5.8c-0.4-0.3-0.8-0.5-1.4-0.5
			C203.6,13.4,203.2,13.5,202.8,13.8z"/>
		<path id="XMLID_1341_" class="st4" d="M210.7,20v-5.5l-1-0.6v-0.6l2.2-0.7l0.4,0.1V14c0.2-0.3,0.5-0.6,1-0.9s1-0.4,1.4-0.4
			c0.4,0,0.6,0,0.7,0.1v1.8c-0.4-0.2-0.8-0.3-1.3-0.3c-0.6,0-1.1,0.1-1.5,0.4V20l1.9,0.2V21h-4.9v-0.8L210.7,20z"/>
		<path id="XMLID_1343_" class="st4" d="M222.4,13.2c0.5,0.4,0.8,1.1,0.8,2.2v4.8h0.9v0.6c-0.2,0.1-0.4,0.2-0.7,0.3
			c-0.3,0.1-0.6,0.1-0.9,0.1c-0.4,0-0.6-0.1-0.8-0.2c-0.2-0.1-0.2-0.4-0.3-0.7c-0.6,0.6-1.3,0.9-2.3,0.9c-0.5,0-1-0.1-1.4-0.3
			c-0.4-0.2-0.7-0.5-0.9-0.8c-0.2-0.3-0.3-0.7-0.3-1.2c0-0.7,0.2-1.2,0.7-1.6c0.5-0.4,1.1-0.7,1.8-0.9c0.7-0.2,1.5-0.3,2.2-0.3v-0.5
			c0-0.7-0.2-1.2-0.5-1.4c-0.3-0.3-0.8-0.4-1.4-0.4c-0.3,0-0.7,0.1-1.1,0.2c-0.4,0.1-0.8,0.2-1.1,0.4l-0.3-0.8
			c0.3-0.3,0.8-0.5,1.5-0.7c0.6-0.2,1.2-0.2,1.7-0.2C221.1,12.6,221.8,12.8,222.4,13.2z M219.3,17.3c-0.6,0.3-0.9,0.7-0.9,1.3
			c0,1,0.5,1.5,1.5,1.5c0.2,0,0.5,0,0.7-0.2c0.3-0.1,0.5-0.2,0.6-0.4l0-2.6C220.6,16.9,219.9,17,219.3,17.3z"/>
		<path id="XMLID_1346_" class="st4" d="M229.8,19.9l0.6-9.2l-1.4-0.1v-1h4l2.3,7.2l0.3,1.2l0.3-1.2l2.2-7.2h3.6v1l-1.4,0.1l0.8,9.2
			l1.2,0.3V21h-4.2v-0.8l1.2-0.3l-0.5-6.4l0-2.7l-0.3,1.1l-2.9,9.1h-0.7l-2.7-7.7c-0.2-0.7-0.5-1.5-0.8-2.5l0,2.3l-0.3,6.8l1.4,0.3
			V21h-4v-0.8L229.8,19.9z"/>
		<path id="XMLID_1348_" class="st4" d="M246.6,12.7V20l1.1,0.2V21h-4.1v-0.8l1.2-0.2v-5.5l-1-0.7v-0.5l2.4-0.7L246.6,12.7z
			 M246.5,9c0.2,0.2,0.3,0.5,0.3,0.8c0,0.4-0.1,0.7-0.4,0.9s-0.6,0.4-0.9,0.4c-0.3,0-0.6-0.1-0.8-0.3c-0.2-0.2-0.3-0.5-0.3-0.8
			c0-0.4,0.1-0.7,0.4-0.9c0.3-0.2,0.6-0.4,0.9-0.4C246,8.7,246.3,8.8,246.5,9z"/>
		<path id="XMLID_1351_" class="st4" d="M250.1,18.7l0.4,0.9c0.3,0.2,0.5,0.4,0.8,0.5c0.2,0.1,0.5,0.2,0.9,0.2
			c0.5,0,0.9-0.1,1.2-0.3s0.4-0.5,0.4-0.9c0-0.3-0.1-0.5-0.4-0.7c-0.3-0.2-0.7-0.4-1.2-0.7l-0.4-0.2c-0.8-0.4-1.3-0.7-1.8-1.2
			c-0.4-0.4-0.6-0.9-0.6-1.5c0-0.5,0.2-0.9,0.5-1.3c0.3-0.3,0.7-0.6,1.2-0.8c0.5-0.2,1-0.3,1.5-0.3c0.4,0,0.9,0,1.3,0.1
			c0.4,0.1,0.8,0.2,1.1,0.3v1.7H254l-0.3-0.9c-0.4-0.4-0.8-0.6-1.2-0.6c-0.4,0-0.8,0.1-1,0.3s-0.4,0.4-0.4,0.8
			c0,0.3,0.1,0.5,0.3,0.7c0.2,0.2,0.4,0.4,0.6,0.5c0.2,0.1,0.6,0.3,1.2,0.6c0.5,0.2,0.9,0.5,1.2,0.6c0.3,0.2,0.6,0.4,0.8,0.7
			c0.2,0.3,0.3,0.7,0.3,1.1c0,0.8-0.3,1.5-1,1.9c-0.7,0.4-1.5,0.7-2.5,0.7c-0.5,0-0.9-0.1-1.4-0.2c-0.5-0.1-0.9-0.3-1.3-0.5v-1.8
			H250.1z"/>
		<path id="XMLID_1353_" class="st4" d="M257.8,18.7l0.4,0.9c0.3,0.2,0.5,0.4,0.8,0.5c0.2,0.1,0.5,0.2,0.9,0.2
			c0.5,0,0.9-0.1,1.2-0.3s0.4-0.5,0.4-0.9c0-0.3-0.1-0.5-0.4-0.7c-0.3-0.2-0.7-0.4-1.2-0.7l-0.4-0.2c-0.8-0.4-1.3-0.7-1.8-1.2
			c-0.4-0.4-0.6-0.9-0.6-1.5c0-0.5,0.2-0.9,0.5-1.3c0.3-0.3,0.7-0.6,1.2-0.8c0.5-0.2,1-0.3,1.5-0.3c0.4,0,0.9,0,1.3,0.1
			c0.4,0.1,0.8,0.2,1.1,0.3v1.7h-0.9l-0.3-0.9c-0.4-0.4-0.8-0.6-1.2-0.6c-0.4,0-0.8,0.1-1,0.3s-0.4,0.4-0.4,0.8
			c0,0.3,0.1,0.5,0.3,0.7c0.2,0.2,0.4,0.4,0.6,0.5c0.2,0.1,0.6,0.3,1.2,0.6c0.5,0.2,0.9,0.5,1.2,0.6c0.3,0.2,0.6,0.4,0.8,0.7
			c0.2,0.3,0.3,0.7,0.3,1.1c0,0.8-0.3,1.5-1,1.9c-0.7,0.4-1.5,0.7-2.5,0.7c-0.5,0-0.9-0.1-1.4-0.2c-0.5-0.1-0.9-0.3-1.3-0.5v-1.8
			H257.8z"/>
		<path id="XMLID_1355_" class="st4" d="M267.5,12.7V20l1.1,0.2V21h-4.1v-0.8l1.2-0.2v-5.5l-1-0.7v-0.5l2.4-0.7L267.5,12.7z
			 M267.4,9c0.2,0.2,0.3,0.5,0.3,0.8c0,0.4-0.1,0.7-0.4,0.9s-0.6,0.4-0.9,0.4c-0.3,0-0.6-0.1-0.8-0.3c-0.2-0.2-0.3-0.5-0.3-0.8
			c0-0.4,0.1-0.7,0.4-0.9c0.3-0.2,0.6-0.4,0.9-0.4C266.9,8.7,267.2,8.8,267.4,9z"/>
		<path id="XMLID_1358_" class="st4" d="M276.5,13.6c0.6,0.8,1,1.8,1,3c0,0.9-0.2,1.7-0.5,2.3c-0.4,0.7-0.8,1.2-1.4,1.6
			c-0.6,0.4-1.3,0.6-2.1,0.6c-1.3,0-2.3-0.4-2.9-1.2s-1-1.8-1-3.1c0-0.9,0.2-1.6,0.6-2.3c0.4-0.7,0.9-1.2,1.5-1.5
			c0.6-0.3,1.3-0.5,2.1-0.5C274.9,12.5,275.8,12.9,276.5,13.6z M271.5,16.6c0,1,0.2,1.8,0.5,2.5c0.3,0.7,0.8,1.1,1.5,1.1
			c0.7,0,1.2-0.3,1.6-0.9s0.5-1.4,0.5-2.5c0-1-0.2-1.8-0.5-2.5c-0.3-0.6-0.8-0.9-1.5-0.9C272.1,13.4,271.5,14.5,271.5,16.6z"/>
		<path id="XMLID_1361_" class="st4" d="M279.5,20v-5.5l-1-0.6v-0.6l2.2-0.7l0.4,0.1v1.1c0.4-0.3,0.9-0.6,1.4-0.9
			c0.6-0.2,1.1-0.3,1.6-0.3c0.9,0,1.5,0.3,1.8,0.8c0.3,0.5,0.5,1.4,0.5,2.6V20l1.1,0.2V21h-4v-0.8l1.1-0.2v-3.8c0-0.6,0-1.1-0.1-1.4
			c-0.1-0.3-0.2-0.6-0.5-0.7c-0.2-0.2-0.5-0.2-1-0.2c-0.3,0-0.6,0.1-0.9,0.2c-0.3,0.1-0.6,0.2-0.9,0.5V20l1,0.2V21h-3.8v-0.8
			L279.5,20z"/>
	</g>
	<g id="XMLID_1279_">
		<path id="XMLID_1280_" class="st4" d="M229.4,31.9v-6.1l-0.7-0.1v-0.7h1.5c0.2,0,0.6,0,1,0c0.1,0,0.2,0,0.4,0c0.2,0,0.3,0,0.5,0
			c1.2,0,2.2,0.3,2.8,0.9c0.6,0.6,0.9,1.5,0.9,2.7c0,0.8-0.2,1.5-0.5,2.1c-0.3,0.6-0.8,1.1-1.4,1.4s-1.2,0.5-2,0.5
			c-0.2,0-0.4,0-0.7,0c-0.3,0-0.6,0-0.9,0h-1.5v-0.6L229.4,31.9z M231.7,32c0.1,0,0.3,0,0.3,0c0.4,0,0.8-0.2,1.1-0.4
			c0.3-0.3,0.6-0.6,0.7-1.1c0.2-0.5,0.3-1,0.3-1.6c0-1.1-0.2-1.9-0.6-2.4c-0.4-0.6-1-0.8-1.8-0.8c-0.2,0-0.4,0-0.5,0
			c-0.1,0-0.3,0-0.4,0.1v6.1C231,32,231.3,32,231.7,32z"/>
		<path id="XMLID_1283_" class="st4" d="M237.2,32v-6.2l-0.8-0.2v-0.6l1.9-0.2l0.3,0.1l0,2.3l-0.1,0.7c0.3-0.2,0.6-0.4,0.9-0.5
			c0.3-0.1,0.6-0.2,1-0.2c0.4,0,0.8,0.1,1,0.3c0.2,0.2,0.4,0.5,0.5,0.8c0.1,0.4,0.1,0.9,0.1,1.5V32l0.7,0.1v0.6l-2.9,0v-0.6l0.8-0.1
			v-2c0-0.5,0-0.9-0.1-1.1c0-0.3-0.1-0.5-0.3-0.6c-0.1-0.2-0.4-0.2-0.7-0.2c-0.2,0-0.4,0-0.5,0.1s-0.3,0.1-0.5,0.2V32l0.6,0.1v0.6
			h-2.7v-0.6L237.2,32z"/>
		<path id="XMLID_1285_" class="st4" d="M247.6,27.5c0.4,0.3,0.5,0.8,0.5,1.5l0,3.1h0.6v0.4c-0.1,0.1-0.3,0.1-0.5,0.2
			c-0.2,0-0.4,0.1-0.6,0.1c-0.5,0-0.7-0.2-0.8-0.6c-0.4,0.4-0.9,0.6-1.5,0.6c-0.5,0-1-0.1-1.3-0.4s-0.5-0.7-0.5-1.1
			c0-0.4,0.2-0.8,0.5-1.1c0.3-0.3,0.7-0.5,1.2-0.6c0.5-0.1,1-0.2,1.5-0.2v-0.2c0-0.4-0.1-0.7-0.3-0.9c-0.2-0.2-0.5-0.3-0.9-0.3
			c-0.2,0-0.5,0-0.8,0.1c-0.3,0.1-0.5,0.2-0.7,0.3l-0.3-0.6c0.2-0.2,0.6-0.3,1-0.4c0.4-0.1,0.8-0.2,1.2-0.2
			C246.7,27.1,247.2,27.2,247.6,27.5z M245.5,30.2c-0.4,0.2-0.5,0.5-0.5,0.8c0,0.6,0.3,0.9,1,0.9c0.1,0,0.3,0,0.4-0.1
			c0.1,0,0.3-0.1,0.4-0.2l0-1.7C246.3,30,245.8,30.1,245.5,30.2z"/>
		<path id="XMLID_1288_" class="st4" d="M250.2,32v-3.5l-0.7-0.5v-0.5l1.6-0.5l0.3,0.1V28c0.1-0.2,0.3-0.5,0.6-0.7
			c0.3-0.2,0.6-0.3,0.9-0.3c0.3,0,0.4,0,0.5,0v1.3c-0.1-0.1-0.2-0.1-0.4-0.1s-0.3-0.1-0.5-0.1c-0.4,0-0.7,0.1-0.9,0.2v3.5l1.2,0.2
			v0.6h-3.3v-0.6L250.2,32z"/>
		<path id="XMLID_1290_" class="st4" d="M258.2,27.5c0.4,0.3,0.5,0.8,0.5,1.5l0,3.1h0.6v0.4c-0.1,0.1-0.3,0.1-0.5,0.2
			c-0.2,0-0.4,0.1-0.6,0.1c-0.5,0-0.7-0.2-0.8-0.6c-0.4,0.4-0.9,0.6-1.5,0.6c-0.5,0-1-0.1-1.3-0.4s-0.5-0.7-0.5-1.1
			c0-0.4,0.2-0.8,0.5-1.1c0.3-0.3,0.7-0.5,1.2-0.6c0.5-0.1,1-0.2,1.5-0.2v-0.2c0-0.4-0.1-0.7-0.3-0.9c-0.2-0.2-0.5-0.3-0.9-0.3
			c-0.2,0-0.5,0-0.8,0.1c-0.3,0.1-0.5,0.2-0.7,0.3l-0.3-0.6c0.2-0.2,0.6-0.3,1-0.4c0.4-0.1,0.8-0.2,1.2-0.2
			C257.3,27.1,257.8,27.2,258.2,27.5z M256.1,30.2c-0.4,0.2-0.5,0.5-0.5,0.8c0,0.6,0.3,0.9,1,0.9c0.1,0,0.3,0,0.4-0.1
			c0.1,0,0.3-0.1,0.4-0.2l0-1.7C256.9,30,256.5,30.1,256.1,30.2z"/>
		<path id="XMLID_1293_" class="st4" d="M260.8,32v-3.5l-0.7-0.5v-0.5l1.6-0.5l0.3,0.1v0.7c0.2-0.2,0.5-0.4,0.8-0.6
			c0.3-0.2,0.7-0.2,1-0.3c0.4,0,0.7,0,1,0.2c0.3,0.1,0.4,0.3,0.6,0.6c0.3-0.2,0.6-0.4,0.9-0.5c0.3-0.1,0.7-0.2,1-0.2
			c0.6,0,1,0.2,1.3,0.6c0.3,0.4,0.4,1,0.4,1.8V32l0.8,0.1v0.6H267v-0.6l0.6-0.1v-2.4c0-0.4,0-0.7-0.1-0.9c-0.1-0.2-0.1-0.4-0.3-0.5
			c-0.1-0.1-0.4-0.2-0.7-0.2c-0.3,0-0.6,0.1-1,0.3c0.1,0.2,0.1,0.6,0.1,1V32l0.7,0.1v0.6h-2.8v-0.6l0.7-0.1v-2.4
			c0-0.6-0.1-1-0.2-1.2c-0.1-0.2-0.4-0.4-0.8-0.4c-0.2,0-0.4,0-0.5,0.1c-0.2,0.1-0.4,0.2-0.5,0.3V32l0.7,0.1v0.6h-2.7v-0.6L260.8,32
			z"/>
		<path id="XMLID_1295_" class="st4" d="M275.6,27.7c0.4,0.5,0.6,1.1,0.6,2c0,0.6-0.1,1.1-0.4,1.5c-0.3,0.5-0.6,0.8-1.1,1.1
			c-0.5,0.3-0.9,0.4-1.5,0.4c-0.1,0-0.3,0-0.4,0s-0.3,0-0.3,0l0,1v0.7l1,0.1v0.6h-3v-0.6l0.6-0.1v-6l-0.7-0.5v-0.5l1.6-0.5l0.3,0.1
			v0.6c0.1-0.2,0.3-0.4,0.7-0.5c0.3-0.1,0.6-0.2,1-0.2C274.7,27,275.3,27.3,275.6,27.7z M273,27.9c-0.2,0.1-0.3,0.2-0.4,0.3v3.5
			c0.1,0.1,0.2,0.2,0.4,0.3c0.2,0.1,0.4,0.1,0.6,0.1c0.3,0,0.5-0.1,0.7-0.3c0.2-0.2,0.4-0.4,0.5-0.8c0.1-0.3,0.2-0.7,0.2-1.1
			c0-0.7-0.1-1.2-0.4-1.5c-0.3-0.4-0.6-0.5-1-0.5C273.3,27.8,273.1,27.9,273,27.9z"/>
		<path id="XMLID_1298_" class="st4" d="M277.1,27.9v-0.5l1.6-0.4l0.2,0.1v3.4c0,0.5,0.1,0.9,0.2,1.1c0.1,0.2,0.4,0.3,0.7,0.3
			c0.2,0,0.4,0,0.6-0.1s0.4-0.2,0.5-0.3v-3.3l-0.6-0.3v-0.6l1.8-0.4l0.2,0.1v5h0.6v0.5c-0.1,0.1-0.3,0.1-0.5,0.2
			c-0.3,0.1-0.5,0.1-0.6,0.1c-0.2,0-0.3,0-0.5-0.1c-0.1-0.1-0.2-0.2-0.2-0.4V32c-0.2,0.2-0.5,0.4-0.8,0.5c-0.3,0.1-0.6,0.2-0.9,0.2
			c-0.5,0-0.8-0.1-1.1-0.3c-0.3-0.2-0.4-0.4-0.5-0.7c-0.1-0.3-0.1-0.7-0.1-1.2v-2.4L277.1,27.9z"/>
		<path id="XMLID_1300_" class="st4" d="M284.5,32v-3.5l-0.7-0.5v-0.5l1.6-0.5l0.3,0.1V28c0.1-0.2,0.3-0.5,0.6-0.7
			c0.3-0.2,0.6-0.3,0.9-0.3c0.3,0,0.4,0,0.5,0v1.3c-0.1-0.1-0.2-0.1-0.4-0.1s-0.3-0.1-0.5-0.1c-0.4,0-0.7,0.1-0.9,0.2v3.5l1.2,0.2
			v0.6h-3.3v-0.6L284.5,32z"/>
	</g>
</g>
</svg>
